<?xml version="1.0" encoding="utf-8"?>
<!-- Generator: Adobe Illustrator 27.9.0, SVG Export Plug-In . SVG Version: 6.00 Build 0)  -->
<svg version="1.1" id="レイヤー_1" xmlns="http://www.w3.org/2000/svg" xmlns:xlink="http://www.w3.org/1999/xlink" x="0px"
	 y="0px" viewBox="0 0 830 250" style="enable-background:new 0 0 830 250;" xml:space="preserve">
<style type="text/css">
	.st0{fill:#FFFFFF;}
</style>
<g>
	<path class="st0" d="M476,67.3c-1.7,2.3-4.9,2.8-7.3,1.3c-4.3-2.7-10-5.3-17.1-6.6c-4.7-0.8-9.4-1-14.1-0.4
		c-2.9,0.3-5.5-1.5-6.2-4.3l-4.6-20.7c-0.7-3.1,1.4-6.2,4.6-6.7c8.6-1.3,17.3-1.2,25.9,0.3c10.8,1.9,21.2,6.1,30.4,12.2
		c2.7,1.8,3.3,5.5,1.3,8L476,67.3z"/>
	<path class="st0" d="M439.4,196.4c-13.3,0-24.3-4.1-32.3-8.6c-3.2-1.8-4.1-6-2-9.1l11.2-16.2c1.8-2.5,5.1-3.5,7.9-2.1
		c4,2,9.2,3.7,15.2,3.7h0.1c0.2,0,20.8-0.3,27.3-14.4c3.7-8,2.5-18.3-2.7-24.5c-5.2-6.1-13.4-7.2-18.8-7.8
		c-18.1-2.2-33.2,8.4-38.8,13l-13.7,11.4c-3.8,3.2-9.7,0.9-10.3-4.1l-2.2-17.7c-1.4-11.4-1.6-22.9-0.6-34.3
		c0.8-8.3,2.2-16.5,4.3-24.6c0.9-3.5,4.5-5.6,8-4.5l18.7,5.7c3.2,1,5.1,4.3,4.3,7.5c-1.6,6.2-2.6,12.5-3.2,18.9
		c-0.1,0.6-0.1,1.2-0.2,1.8c10.5-4.1,23.4-6.8,37.7-5.1c7.8,1,26.2,3.3,39.5,19.1c13.2,15.7,16.2,39.3,7.3,58.6
		c-14.7,32.1-52.1,33.2-56.4,33.2H439.4z"/>
	<path class="st0" d="M552,174.7c-2.5,1.2-5.6,0.3-7.1-2l-4.9-7.5c-7.5-11.4-12.7-23.8-15.3-37c-4.3-21.2-1.2-39.6,2.9-52.8
		c1-3.1,4.4-4.8,7.4-3.7l19.5,7.4c2.8,1,4.3,4.1,3.4,6.9c-2.7,9.1-4.7,21.6-1.8,35.8c0.5,2.6,1.2,5.1,2,7.6c1,3.2,4.7,4.8,7.8,3.3
		c2.8-1.3,6.2-0.1,7.5,2.8l8.7,18.9c1.3,2.8,0.1,6.2-2.8,7.5L552,174.7z"/>
	<path class="st0" d="M634.5,147.7l-14.9-9.7c-3-2-4.1-5.8-2.7-9.1c2-4.6,3.8-11.2,2.8-19c-1.3-9.9-6.7-17-10.8-21.1
		c-2.5-2.5-2.7-6.4-0.7-9.3L618.4,65c2.5-3.6,7.6-4.2,10.8-1.2c8.1,7.4,19.7,21.3,22.4,42c2.2,16.5-2.1,30-6.6,39
		C643.1,148.7,638.2,150,634.5,147.7"/>
	<path class="st0" d="M663.5,169.8c8.6-22.1,17.3-44.8,25.8-67.3c7.7-20.2,15.3-40.4,22.7-60.3c1-2.7,4-4,6.6-3l20.5,7.6
		c2.7,1,4,4,3,6.6c-5.1,13.8-10.4,27.8-15.7,41.8c-1.4,3.6,1.6,7.3,5.4,6.9c1.1-0.1,1.6,0.1,3.4-0.1c4.3-0.3,7.8,0.5,9.2,0.9
		c4.2,1.2,6.7,4.4,8.2,6.1c7.6,9.3,2.5,18.2,8.9,32.1c2,4.2,5.9,12.7,12.8,13.5c5.1,0.6,11-2.9,13.5-7.5c2.9-5.2,6.3-9.4,3.4-19.2
		c-0.7-2.3,0.3-4.9,2.4-6l19.9-10c2.7-1.4,6.1-0.1,7.1,2.7c1.1,2.9,10.9,31-7.5,52.3c-8.8,10.2-25.7,20.7-43.3,16.6
		c-22.7-5.2-34-31.3-34-37.1c0-0.5-0.6-2-1.1-3.8c-1.1-3.7-5.6-5-8.4-2.4c-7.9,7.2-32.2,40-34.4,44.1"/>
	<path class="st0" d="M11.7,39.1l0-5.8c0-7.5,6.1-13.6,13.6-13.6l134,0c7.5,0,13.6,6.1,13.6,13.6l0,5.8c0,7.5-6.1,13.6-13.6,13.6
		l-134,0C17.8,52.7,11.7,46.6,11.7,39.1"/>
	<path class="st0" d="M148.9,237.1c-44.2,0-91-10.9-135.6-33c-5.1-2.5-8.1-7.9-7.6-13.5L6.6,180c0.6-7,6.4-12.3,13.4-12.4
		c19.8-0.3,54.2-5.1,82.6-31.2c7.9-7.3,14.1-15.1,19-22.7c3.1-4.9-0.3-11.3-6.1-11.3c-22,0-67.5-0.2-90.3-0.2
		c-7.5,0-13.6-6.1-13.6-13.7l0-4.9c0-7.5,6.1-13.6,13.7-13.6l129.3,0.3c9.1,0,15.6,8.7,13.1,17.5l-0.9,3.1
		c-5.4,18.8-17.2,46-42.4,69.2c-14,12.9-29.1,21.7-43.8,27.7c-3.7,1.5-3.4,7,0.5,8c79.4,21.6,158.3,5.5,202.1-45.6
		c23.1-27,32.2-59.1,35-87c0.6-6-4.1-11.3-10.2-11.2l-51.7,0.2c-6.1,0-11.5,4.1-13.1,10c-3.1,11.5-8.3,24.1-17.1,36.5
		c-5.6,8-12.2,15.2-19.7,21.5c-6.3,5.3-15.9,3.9-20.4-3.1l-2.6-4.1c-3.7-5.8-2.4-13.4,2.9-17.9c5.1-4.4,9.7-9.4,13.5-14.9
		c11.5-16.3,14.6-33.3,15.1-44.7l0.1-2.3c0.3-7.3,6.3-13,13.6-13l108.9-0.4c7.4,0,13.5,5.9,13.7,13.3l0.1,2.4
		c0.9,37.7-5.9,91.8-43.7,135.8C270.3,214.6,212.4,237.1,148.9,237.1"/>
</g>
</svg>
